<svg fill="#000" width="800" height="800" viewBox="144 144 512 512" xmlns="http://www.w3.org/2000/svg"><g><path d="m4e2 441.98c-33.406.0-65.441-13.273-89.062-36.891-23.621-23.621-36.891-55.66-36.891-89.062.0-33.406 13.27-65.441 36.891-89.062s55.656-36.891 89.062-36.891c33.402.0 65.441 13.27 89.059 36.891 23.621 23.621 36.891 55.656 36.891 89.062.0 33.402-13.27 65.441-36.891 89.062-23.617 23.617-55.656 36.891-89.059 36.891zm0-230.91c-27.84.0-54.535 11.059-74.219 30.742s-30.742 46.379-30.742 74.219c0 27.836 11.059 54.535 30.742 74.219S372.16 420.992 4e2 420.992c27.836.0 54.531-11.059 74.215-30.742 19.688-19.684 30.742-46.383 30.742-74.219.0-27.84-11.055-54.535-30.742-74.219-19.684-19.684-46.379-30.742-74.215-30.742z"/><path d="m578.43 609.92H222.09c-2.8906.019531-5.6641-1.1602-7.6602-3.2539-1.9961-2.1172-3.0234-4.9688-2.8359-7.8711 3.5508-47.539 24.941-91.977 59.883-124.41 34.941-32.43 80.852-50.449 128.52-50.449s93.578 18.02 128.52 50.449c34.941 32.43 56.332 76.867 59.883 124.41.1875 2.9023-.83984 5.7539-2.8359 7.8711-1.8672 1.9688-4.4258 3.1328-7.1367 3.2539zm-344.79-20.992h332.72c-5.5391-40.184-25.441-77.004-56.02-103.66-30.582-26.652-69.777-41.336-110.34-41.336-40.566.0-79.762 14.684-110.34 41.336-30.582 26.652-50.48 63.473-56.023 103.66z"/></g></svg>