<svg fill="#000" width="800" height="800" viewBox="144 144 512 512" xmlns="http://www.w3.org/2000/svg"><path d="m554.53 623.91c-1.5938.0-3.1758-.49219-4.5078-1.4648l-147.27-106.05-147.26 106.05c-2.3516 1.6914-5.4609 1.9336-8.0391.61328s-4.1992-3.9844-4.1992-6.875v-432.38c0-4.2695 3.457-7.7266 7.7266-7.7266h303.56c4.2734.0 7.7266 3.4688 7.7266 7.7266v432.38c0 2.9023-1.6211 5.5547-4.1992 6.875-1.1289.5625-2.3398.85156-3.5391.85156zM402.74 499.14c1.5859.0 3.168.49609 4.5117 1.4648l139.54 100.49v-409.56h-288.11v409.56l139.54-100.49c1.3555-.96875 2.9414-1.4648 4.5234-1.4648z"/></svg>