<svg fill="#000" width="800" height="800" viewBox="144 144 512 512" xmlns="http://www.w3.org/2000/svg"><g><path d="m363.01 480.57c23.145-4.5898 32.293-10.242 33.488-11.043l3.6445-2.4336-4.875-146.13c-1.9023-57.207-48.238-102.02-105.48-102.02-57.238.0-103.57 44.816-105.48 102.02l-4.8711 146.12 3.6445 2.4336c1.1875.78906 10.336 6.4453 33.488 11.035-36.992 23.902-60.609 65.246-60.609 111.27v52.199h267.65v-52.199c0-46.027-23.613-87.371-60.605-111.26zm-23.883-12.266c-3.6211-1.4023-7.3047-2.6836-11.082-3.7773l-2.6367-13.188c18.223-7.0781 31.738-23.555 34.605-43.469h.625c8.3203.0 15.855-3.3047 21.492-8.5977l1.9609 58.922c-6.0156 2.5586-19.848 7.2188-44.965 10.109zm-65.078-13.203h31.488c1.5273.0 3.0312-.10937 4.5273-.22656l3.3438 16.75v7.0938c0 2.6445-.16406 5.2656-.46484 7.8711h-46.305c-.28906-2.6055-.46094-5.2266-.46094-7.8711v-7.0938l3.3438-16.75c1.4961.11719 3 .22656 4.5273.22656zm35.195 47.234c-3.9531 11.117-10.578 21.223-19.453 29.18-8.8789-7.957-15.5-18.066-19.453-29.18zm51.395-141.7c8.6836.0 15.742 7.0625 15.742 15.742.0 8.6836-7.0625 15.742-15.742 15.742zm-70.848-125.95c48.703.0 88.121 38.125 89.742 86.797l1.0234 30.715c-5.4414-4.4961-12.32-7.3047-19.918-7.3047v-7.8711c0-13.02-10.598-23.617-23.617-23.617h-7.8711c-17.367.0-31.488-14.121-31.488-31.488h-15.742c0 26.047 21.184 47.23 47.23 47.23h7.8711c4.3359.0 7.8711 3.5352 7.8711 7.8711v62.977c0 21.703-17.656 39.359-39.359 39.359h-31.488c-21.703.0-39.359-17.656-39.359-39.359v-62.977c0-12.746 10.164-23.098 22.805-23.539 4.6602 8.8164 11.477 16.492 20.059 22.215l8.7305-13.098c-12.586-8.3867-20.102-22.441-20.102-37.57v-3.1094h-15.742v3.1094c0 4.5273.57422 8.957 1.5352 13.281-18.684 3.0469-33.027 19.184-33.027 38.715v7.8711c-7.5977.0-14.477 2.8086-19.918 7.3047l1.0234-30.715c1.625-48.676 41.039-86.797 89.742-86.797zm-70.848 157.44c-8.6836.0-15.742-7.0625-15.742-15.742.0-8.6836 7.0625-15.742 15.742-15.742zm-23.449 66.078 1.9609-58.93c5.6328 5.2891 13.168 8.5977 21.488 8.5977h.62891c2.8672 19.91 16.383 36.383 34.605 43.469l-2.6367 13.188c-3.7852 1.0938-7.4766 2.3789-11.098 3.7852-25.176-2.8984-38.984-7.5742-44.949-10.109zm55.094 23.129c.80469 26.145 13.492 50.926 34.48 66.66l4.7227 3.543 4.7227-3.543c20.988-15.742 33.676-40.516 34.48-66.66 43.523 14.91 74.156 53.953 78.352 99.723h-31.18c-.54297-12.746-4.3945-25.047-11.492-35.699l-5.3516-8.0312-13.098 8.7305 5.3516 8.0312c5.9297 8.9023 9.0625 19.262 9.0625 29.961.0 11.609-3.832 23.121-10.809 32.402l-8.8711 11.84h-102.34l-8.8789-11.84c-6.9648-9.2891-10.801-20.801-10.801-32.402.0-10.699 3.1328-21.059 9.0703-29.961l5.3516-8.0312-13.098-8.7305-5.3516 8.0312c-7.1016 10.652-10.953 22.953-11.496 35.699h-31.188c4.1953-45.766 34.824-84.82 78.355-99.723zm-78.875 115.47h32.723c1.9688 10.492 6.2891 20.523 12.715 29.086l1.793 2.4023h-47.23zm188.92 31.488 1.793-2.4023c6.4219-8.5664 10.746-18.602 12.715-29.086h32.734v31.488z"/><path d="m266.18 352.77c0 4.3477-3.5273 7.8711-7.875 7.8711-4.3477.0-7.8711-3.5234-7.8711-7.8711s3.5234-7.8711 7.8711-7.8711 7.875 3.5234 7.875 7.8711"/><path d="m329.15 352.77c0 4.3477-3.5234 7.8711-7.8711 7.8711s-7.8711-3.5234-7.8711-7.8711 3.5234-7.8711 7.8711-7.8711 7.8711 3.5234 7.8711 7.8711"/><path d="m250.43 384.25c0 21.703 17.656 39.359 39.359 39.359s39.359-17.656 39.359-39.359v-7.8711h-78.719zm61.629 7.8711c-3.25 9.1641-12.004 15.742-22.27 15.742-10.266.0-19.02-6.582-22.27-15.742z"/><path d="m281.92 565.31h15.742v15.742H281.92z"/><path d="m281.92 596.8h15.742v15.742H281.92z"/><path d="m490.44 237.47 12.336-9.2969-.49609-4.457c-.51172-4.6133-2.5039-10.141-5.9102-16.414l-2.25-4.1484-14.168.10156-4.7305-14.074-4.4336-.91406c-5.2188-1.0781-10.391-1.0781-15.609.0l-4.4766.91797-4.6289 14.051-15.074-.0625-2.2422 4.125c-2.5352 4.6523-4.4883 10.941-5.0938 16.422l-.49609 4.457 12.336 9.2969-4.7305 15.09 2.9609 3.3281c3.582 4.0391 7.8164 7.2344 12.578 9.5078l4.3125 2.0625 12.352-9.3047 12.352 9.3047 4.3125-2.0625c4.7617-2.2734 8.9961-5.4727 12.578-9.5078l2.9609-3.3281zm-18.344-5.9023 5.2578 16.801c-.19531.16406-.40234.31641-.60547.46484l-13.773-10.387-13.785 10.383c-.20312-.14844-.40234-.30859-.60547-.46484l5.2578-16.801-13.723-10.336c.20312-.76953.44141-1.5352.69141-2.2812l16.617.070312 5.2305-15.82h.65234l5.3359 15.887 15.941-.11719c.37891.85938.70703 1.6758.99219 2.457z"/><path d="m525.24 252.56 2.9609 3.3281c3.582 4.0391 7.8164 7.2344 12.578 9.5078l4.3125 2.0625 12.344-9.3008 12.352 9.3047 4.3125-2.0625c4.7617-2.2734 8.9961-5.4727 12.578-9.5078l2.9609-3.3281-4.7305-15.09 12.336-9.2969-.49609-4.457c-.51172-4.6133-2.5039-10.141-5.9102-16.414l-2.25-4.1484-14.168.10156-4.7305-14.074-4.4336-.91406c-5.2188-1.0781-10.391-1.0781-15.609.0l-4.4805.91406-4.6289 14.051-15.074-.0625-2.2422 4.125c-2.5352 4.6523-4.4883 10.941-5.0938 16.422l-.49609 4.457 12.336 9.2969zm10.047-33.605 16.617.070313 5.2188-15.828h.65234l5.3359 15.887 15.941-.11719c.37891.85938.70703 1.6758.99219 2.457l-13.484 10.156 5.2578 16.801c-.19531.16406-.40234.31641-.60547.46484l-13.777-10.398-13.785 10.383c-.20312-.14844-.40234-.30859-.60547-.46484l5.2578-16.801-13.723-10.336c.21875-.76172.45312-1.5234.70703-2.2734z"/><path d="m644.03 486.59v-94.465c0-13.02-10.598-23.617-23.617-23.617-3.1094.0-6.0625.63672-8.7852 1.7305-2.7148-10.031-11.816-17.473-22.703-17.473-6.0703.0-11.555 2.3711-15.742 6.1406-4.1875-3.7773-9.6758-6.1406-15.742-6.1406-2.7695.0-5.3984.56641-7.8711 1.4492l-.003906-56.551h30.473c18.137.0 33.465-12.988 36.449-30.875l11.297-67.777c.33594-2.0156.50391-4.0469.50391-6.0938.0-20.375-16.582-36.953-36.953-36.953h-162.26c-20.375.0-36.953 16.578-36.953 36.953.0 2.0391.16406 4.0781.50391 6.0781l11.297 67.785c2.9844 17.891 18.312 30.883 36.449 30.883h14.727v12.484c0 10.477 8.5273 19 19.004 19 5.0781.0 9.8477-1.9766 13.438-5.5664l14.793-14.789v77.484c-10.555-11.109-25.535-18.098-42.359-18.098-11.359.0-20.609 9.2422-20.617 20.609.0 3.1797.75391 6.3672 2.1719 9.2266l9.1797 18.352c2.8711 5.7422 4.3906 12.176 4.3906 18.598v51.422c0 11.746 3.8555 23.41 10.855 32.844l12.09 16.297-17.285 69.145h177.61l-17.277-69.125 11.918-15.895c7.0977-9.4688 11.02-21.207 11.02-33.062zM476.41 312.45c-1.8828 1.875-5.5664.34766-5.5664-2.3047v-28.23h-30.473c-10.414.0-19.207-7.4531-20.926-17.719l-11.297-67.793c-.1875-1.1602-.28125-2.3242-.28125-3.4883.0-11.699 9.5078-21.207 21.207-21.207h162.25c11.707.0 21.215 9.5078 21.215 21.207.0 1.1641-.09375 2.332-.29297 3.4883l-11.297 67.785c-1.707 10.273-10.508 17.727-20.914 17.727h-31.922c-3.2578-9.1406-11.918-15.742-22.168-15.742-11.785.0-21.492 8.6992-23.246 19.988zm4.5156 276.47 11.809-47.23h113.66l11.809 47.23zm147.36-102.34c0 8.4609-2.793 16.855-7.8711 23.617l-11.809 15.742h-118.06l-11.949-16.098c-5-6.7383-7.7539-15.074-7.7539-23.457v-51.422c0-8.8633-2.0938-17.727-6.0547-25.656l-9.1719-18.344c-.33594-.67188-.51953-1.4375-.51953-2.1836.0-2.6836 2.1875-4.8633 5.6211-4.8633 22.945.0 41.613 18.672 41.613 41.621v29.227h15.742v-164.98c0-4.3359 3.5352-7.8711 7.8711-7.8711 4.3359.0 7.8711 3.5352 7.8711 7.8711v125.95h15.742v-39.359c0-4.3359 3.5352-7.8711 7.8711-7.8711 4.3359.0 7.8711 3.5352 7.8711 7.8711v39.359h15.742v-39.359c0-4.3359 3.5352-7.8711 7.8711-7.8711 4.3359.0 7.8711 3.5352 7.8711 7.8711v39.359h15.742v-23.617c0-4.3359 3.5352-7.8711 7.8711-7.8711 4.3359.0 7.8711 3.5352 7.8711 7.8711z"/></g></svg>