<svg fill="#000" width="800" height="800" viewBox="144 144 512 512" xmlns="http://www.w3.org/2000/svg"><path d="m596.48 236.82H545.3v-33.309c0-2.7852-2.2539-5.0391-5.0391-5.0391h-44.75c-2.7812.0-5.0391 2.2539-5.0391 5.0391v33.309h-180.96v-33.309c0-2.7852-2.2539-5.0391-5.0391-5.0391h-44.746c-2.7812.0-5.0391 2.2539-5.0391 5.0391v33.309h-51.184c-2.7812.0-5.0391 2.2539-5.0391 5.0391l.003906 354.62c0 2.7852 2.2539 5.0391 5.0391 5.0391h392.97c2.7812.0 5.0391-2.2539 5.0391-5.0391l-.003906-354.62c0-2.7852-2.2578-5.0391-5.0391-5.0391zm-5.0391 168.82h-89.207v-82.824h89.207zm-99.285.0h-87.391v-82.824h87.391zm-97.465.0h-87.391v-82.824h87.391zm-97.465.0h-88.68v-82.824h88.68zm-88.68 10.078h88.68v82.828h-88.68zm98.754.0h87.391v82.828h-87.391zm87.391 92.902v82.824h-87.391V508.62zm10.074.0h87.391v82.824h-87.391zm0-10.074v-82.828h87.391v82.828zm97.469-82.828h89.207v82.828h-89.207zm-1.6836-207.17h34.672v43.504c0 9.5586-7.7773 17.34-17.34 17.34-9.5586.0-17.336-7.7773-17.336-17.34zm-235.78.0h34.672v43.504c0 9.5586-7.7773 17.34-17.336 17.34s-17.336-7.7773-17.336-17.34zm-10.078 38.348v5.1562c0 15.113 12.297 27.414 27.41 27.414s27.41-12.301 27.41-27.414v-5.1562h180.96v5.1562c0 15.113 12.297 27.414 27.41 27.414 15.117.0 27.414-12.301 27.414-27.414v-5.1562h46.148v65.844h-382.89v-65.844zm-46.145 261.72h88.68v82.824h-88.68zm293.69 82.824v-82.824h89.207v82.824z"/></svg>