<svg fill="#000" width="800" height="800" viewBox="144 144 512 512" xmlns="http://www.w3.org/2000/svg"><g><path d="m419.02 480.61c-5.5312.0-10.012 4.5156-10.012 10.078v40.305c0 5.5625-4.4844 10.078-10.012 10.078l-120.11-.003906c-5.5273.0-10.012-4.5156-10.012-10.078v-261.98c0-5.5625 4.4844-10.078 10.012-10.078h120.11c5.5273.0 10.012 4.5156 10.012 10.078v20.152c0 5.5625 4.4844 10.078 10.012 10.078 5.5273.0 10.004-4.5156 10.004-10.078v-20.152c0-16.691-13.441-30.23-30.027-30.23l-120.11.003906c-16.586.0-30.027 13.535-30.027 30.227v261.98c0 16.691 13.441 30.23 30.027 30.23h120.11c16.586.0 30.027-13.539 30.027-30.23v-40.305c.003906-5.5625-4.4805-10.074-10.008-10.074z"/><path d="m474.07 312.34-14.215 14.105 53.047 53.406h-163.95v20.152h163.95l-53.047 53.402 14.215 14.105 77.07-77.586z"/></g></svg>